<svg height="512" viewBox="0 0 60 58" width="512" xmlns="http://www.w3.org/2000/svg"><path id="Shape" d="m54.29 35c-.5128885-.5786137-1.2293759-.9368574-2-1-7.22-.55-6.12-.48-6.39-.46-.0996152-.9751515-.2734526-1.9412862-.52-2.89l6.91-.53c.7706241-.0631426 1.4871115-.4213863 2-1l6.46-7.38c.2546943-.2651659.3433359-.6487093.2308216-.9987417-.1125144-.3500324-.4080352-.6100907-.7695321-.6771882-.361497-.0670976-.7306577.069589-.9612895.3559299l-6.46 7.39c-.1768279.1935169-.4190898.3146478-.68.34-7.89.6-7.13.52-7.4.62-.5809976-1.4640865-1.409774-2.8171908-2.45-4l9.59-6.39c.6873562-.4602957 1.154139-1.1839899 1.29-2l1.86-10.2c.0643078-.3572656-.0668682-.72170046-.3441154-.95602547-.2772472-.234325-.658445-.30294062-1-.18-.341555.12294061-.5915768.41875986-.6558846.77602547l-1.83 10.18c-.0469982.2695651-.202405.5080964-.43.66-10.57 7.03-9.74 6.42-9.91 6.64-.5830191-.4701139-1.1941524-.9042523-1.83-1.3 3.47-3.61 2.2-9.31-1.6-12.57.0616454-.07940551.1121152-.16688646.15-.26.9-2.38.31-5.39-2.89-7.95-.2078446-.1666477-.473593-.24347345-.7382977-.21343603-.2647047.03003741-.5064822.16445474-.6717023.37343603-.3403569.43136993-.2689082 1.05654608.16 1.4 1.78 1.42 3 3.33 2.33 5.48-2.9176522-1.68450726-6.5123478-1.68450726-9.43 0-.41-1.38-.28-3.39 2.34-5.49.4289082-.34345392.5003569-.96863007.16-1.4-.3434539-.42890818-.9686301-.50035688-1.4-.16-3.88 3.09-3.49 6.3-2.91 7.93.0337751.10423143.0844504.20220364.15.29-3.81 3.25-5.1 8.95-1.65 12.57-.6448598.3966312-1.2659243.8307085-1.86 1.3-.19-.22.67.4-9.91-6.66-.2118087-.1528985-.3553782-.3826097-.4-.64l-1.83-10.18c-.09941125-.55228475-.62771525-.91941125-1.18-.82s-.91941125.62771525-.82 1.18l1.86 10.16c.13586101.8160101.60264378 1.5397043 1.29 2l9.59 6.39c-1.040226 1.1828092-1.8690024 2.5359135-2.45 4-.27-.1.52 0-7.4-.62-.26091022-.0253522-.50317212-.1464831-.68-.34l-6.46-7.43c-.37083717-.386084-.97995032-.4116464-1.38183179-.0579907s-.45397016.9610757-.11816821 1.3779907l6.46 7.34c.51288854.5786137 1.22937592.9368574 2 1l6.91.53c-.2456848.948903-.4195103 1.9149719-.52 2.89-.27 0 .81-.09-6.39.46-.77062408.0631426-1.48711146.4213863-2 1l-6.46 7.46c-.25469425.2651659-.34333588.6487093-.23082156.9987417.11251433.3500324.40803514.6100907.76953209.6771882.36149696.0670976.73065771-.069589.96128947-.3559299l6.46-7.39c.17682788-.1935169.41908978-.3146478.68-.34l6.11-.46c-.027378 2.0162474.1739072 4.0290997.6 6-.28.07.28-.27-6.46 4.23-.68735622.4602957-1.15413899 1.1839899-1.29 2l-1.85 10.12c-.09941124.5522847.26771526 1.0805887.82 1.18.55228475.0994112 1.08058873-.2677153 1.18-.82l1.83-10.18c.0469982-.2695651.202405-.5080964.43-.66l5.85-3.9c2.23 7.85 7.61 14.56 13.89 14.56s11.66-6.71 13.89-14.54l5.85 3.9c.2253399.1495981.3804699.3840969.43.65l1.83 10.17c.0643078.3572656.3143296.6530849.6558846.7760255s.7227528.054325 1-.18.4084232-.5987599.3441154-.9560255l-1.86-10.16c-.135861-.8160101-.6026438-1.5397043-1.29-2-6.72-4.48-6.18-4.16-6.46-4.23.4260928-1.9709003.627378-3.9837526.6-6l6.12.46c.2609102.0253522.5031721.1464831.68.34l6.46 7.39c.3708372.386084.9799503.4116464 1.3818318.0579907s.4539702-.9610757.1181682-1.3779907zm-27.29-25c1.6568542 0 3 1.3431458 3 3s-1.3431458 3-3 3-3-1.3431458-3-3 1.3431458-3 3-3zm4 27c2.76 0 5 1.34 5 3s-2.24 3-5 3-5-1.34-5-3 2.24-3 5-3c-3.87 0-7-2.24-7-5s3.13-5 7-5 7 2.24 7 5-3.13 5-7 5zm4-21c-1.6568542 0-3-1.3431458-3-3s1.3431458-3 3-3 3 1.3431458 3 3-1.3431458 3-3 3z" transform="translate(-1 -1)"/></svg>